# xmcd
#
# Track frame offsets:
#	150
#	15173
#	27170
#	46799
#	58651
#	83621
#	100139
#	122483
#	135602
#	151499
#	179068
#	188365
#	199823
#	226520
#	259966
#	271790
#
# Disc length: 3670 seconds
#
# Revision: 2
# Processed by: cddbd v1.5.2PL0 Copyright (c) Steve Scherf et al.
# Submitted via: audiograbber 1.83.01
#
DISCID=bf0e5410
DTITLE=Various Artist - Scottish Flavours - Golden Greats - CD 1
DYEAR=2002
DGENRE=Pipes and Bands
TTITLE0=The Pipes Of The Auld Town Band - Highland Cathedral
TTITLE1=The Pipe Band Of The Royal Tank Regiment - Scotland The Brave
TTITLE2=The Band Of The Queen's Own Highlanders - Bengullion
TTITLE3=The Band Of The Queen's Own Highlanders - Mull Of Kintyre
TTITLE4=The Band Of The Queen's Own Highlanders (medley) - Macedonia - O'er The
TTITLE4=Bows To Ballindalloch - Pigeon On The Gate - Bunch Of Violets Blue - J
TTITLE4=im Tweedie's Sea Legs - Queen Victoria's Jubilee
TTITLE5=The Band Of The Gordon Highlanders - Mist Covered Mountains
TTITLE6=The Pipe Band Of The Royal Tank Regiment (medley) - Old Toastie - Lady 
TTITLE6=MacKenzie of Fairburn - The Strathspey King - Gin I Were A Baron's Heir
TTITLE6=Barbara's Jig - The Mason's Apron
TTITLE7=The Pipes Of The Auld Town Band (medley) - Prince Charles - Brown Haire
TTITLE7=d Maiden - Mairi's Wedding
TTITLE8=The Pipe Band Of The Royal Tank Regiment (medley) - Duncan McInnes - St
TTITLE8=irling Castle - The Kilt Is My Delight - Dr Ross 50th Welcome To The Ar
TTITLE8=gyllshire Gathering
TTITLE9=Band Of The Queen's Own Highlanders (medley) - Loch Ruan - Because He W
TTITLE9=as A Bonny Lad - Come Ye By The Hills - The Ale Is Dear - Blue Bells - 
TTITLE9=Donald Willie And His Dog - My Love Has Gone - Jim Tweedie's Sea Legs -
TTITLE9=Lt. Col. R N Wheeler
TTITLE10=The Pipes Of The Auld Town Band - Auld Town March
TTITLE11=The Pipes Of The Auld Town Band - Skye Boat Song - Highland Cradle Son
TTITLE11=g
TTITLE12=The Pipe Band Of The Royal Tank Regiment (medley) - Mary Anderson - Ca
TTITLE12=mpbell Town Kiltie - Moving Cloud - The Famous Bridge - Eriskay Love S
TTITLE12=ong - The Ass In The Graveyard - Merrily Danced The Quaker's Wife - Th
TTITLE12=e Queen Of The Rushes
TTITLE13=The Band Of The Queen's Own Highlanders (medley) - Pipe Major Willie R
TTITLE13=oss - Highland Lassie Going To The Fair - Lady Ramsey's Strathspey - L
TTITLE13=ady Carmichael's Strathspey - Leezy Lindsay - The Brolam - Pulteney Re
TTITLE13=el - Isle Of Barley - Newmarket House
TTITLE14=The Pipes Of The Auld Town Band - Amazing Grace
TTITLE15=The Pipes Of The Royal Tank Regiment - Auld Lang Syne - Heilan' Laddie
EXTD=
EXTT0=
EXTT1=
EXTT2=
EXTT3=
EXTT4=
EXTT5=
EXTT6=
EXTT7=
EXTT8=
EXTT9=
EXTT10=
EXTT11=
EXTT12=
EXTT13=
EXTT14=
EXTT15=
PLAYORDER=
